# xmcd
#
# Track frame offsets:
# 150
# 27827
# 50304
# 71656
# 99658
# 129610
# 146737
# 167364
# 182141
# 201093
# 223483
# 234210
# 259075
# 280227
# 295267
#
# Disc length: 4205 seconds
#
#
# Revision: 3
# Processed by: cddbd v1.5.2PL0 Copyright (c) Steve Scherf et al.
# Submitted via: FreeRIP 2.95 
#
DISCID=e6106b0f
DTITLE=Various Artist - New Age Music and New Sounds N. 6 "Dynamic"
DYEAR=1997
DGENRE=World Music
TTITLE0=Patrick O'Hearn - Liberty
TTITLE1=Waldeck - Aquarius
TTITLE2=East Bounce Dreams Of Water
TTITLE3=James Perry - Peace Like A River
TTITLE4=Al Gromer Khan - How Can We Be Shure
TTITLE5=Yulduz Usmanova - Yor Yor Part 2
TTITLE6=Akira Jimbo - Land Of Innocence
TTITLE7=Shanon - Tara Tain
TTITLE8=Soul Ballet - Exotique
TTITLE9=Ken Navarro - The Test Of Time
TTITLE10=Peter Northcote And Lindsay Jahan - Transvision
TTITLE11=Alan Stivell - Brian Boru
TTITLE12=3rd Force Feat. Rick Braun - In The Full Moon Light
TTITLE13=Mark Hawkins - Wide World
TTITLE14=David Dowines - Unstill
EXTD=
EXTT0=
EXTT1=
EXTT2=
EXTT3=
EXTT4=
EXTT5=
EXTT6=
EXTT7=
EXTT8=
EXTT9=
EXTT10=
EXTT11=
EXTT12=
EXTT13=
EXTT14=
PLAYORDER=
